<?xml version="1.0" standalone="no"?>
<!DOCTYPE svg PUBLIC "-//W3C//DTD SVG 20010904//EN"
 "http://www.w3.org/TR/2001/REC-SVG-20010904/DTD/svg10.dtd">
<svg version="1.0" xmlns="http://www.w3.org/2000/svg"
 width="1200.000000pt" height="1200.000000pt" viewBox="0 0 1200.000000 1200.000000"
 preserveAspectRatio="xMidYMid meet">
<metadata>
Created by potrace 1.11, written by Peter Selinger 2001-2013
</metadata>
<g transform="translate(0.000000,1200.000000) scale(0.100000,-0.100000)"
fill="#000000" stroke="none">
<path d="M5808 11955 c-2 -1 -72 -6 -157 -9 -84 -4 -158 -9 -165 -11 -6 -2
-42 -6 -81 -10 -134 -11 -377 -45 -475 -65 -25 -6 -58 -12 -75 -15 -320 -51
-1003 -266 -1255 -395 -22 -11 -40 -18 -40 -16 0 5 -392 -192 -430 -215 -14
-9 -54 -32 -90 -52 -102 -57 -115 -65 -298 -185 -725 -471 -1362 -1122 -1804
-1842 -64 -104 -79 -130 -166 -285 -184 -329 -361 -753 -481 -1155 -67 -223
-150 -591 -176 -775 -6 -44 -25 -185 -30 -220 -2 -16 -7 -61 -10 -100 -4 -38
-8 -80 -10 -93 -23 -144 -23 -847 0 -1017 2 -16 6 -59 10 -95 26 -289 89 -638
166 -930 24 -88 30 -109 105 -340 219 -679 582 -1339 1048 -1905 49 -60 95
-115 101 -121 5 -6 37 -42 70 -80 63 -72 312 -324 405 -410 47 -43 240 -210
305 -263 73 -60 312 -233 425 -308 270 -179 584 -354 840 -468 47 -21 103 -46
125 -55 401 -179 1039 -358 1475 -414 25 -3 59 -8 75 -11 34 -6 93 -12 180
-20 33 -3 74 -8 90 -10 162 -23 877 -24 1015 -1 14 3 61 7 105 11 44 3 112 10
150 16 39 5 86 12 105 14 165 21 517 95 720 151 262 73 616 199 828 295 164
74 402 193 402 201 0 4 8 8 19 8 10 0 24 7 31 15 7 8 16 15 21 15 33 0 497
299 689 444 97 73 298 233 310 247 3 3 48 43 100 90 136 121 361 348 485 491
134 153 142 163 185 218 19 25 37 47 40 50 4 3 26 32 51 65 24 33 47 62 52 63
4 2 7 10 7 17 0 7 4 15 9 17 23 8 279 403 396 611 258 460 475 1020 594 1532
34 148 77 366 86 440 6 47 9 65 20 140 6 35 13 106 21 190 3 33 7 70 9 83 23
135 23 889 1 1009 -2 10 -7 53 -11 96 -3 43 -8 88 -10 100 -2 12 -7 49 -10 82
-3 33 -8 67 -10 75 -2 8 -6 37 -10 64 -10 83 -65 367 -87 451 -5 22 -11 47
-13 55 -35 178 -212 708 -310 925 -12 28 -33 75 -45 105 -93 222 -355 687
-518 920 -53 76 -142 198 -159 220 -7 8 -51 65 -99 125 -175 222 -430 496
-640 685 -240 217 -476 400 -734 569 -202 132 -223 145 -410 251 -204 115
-606 297 -845 382 -189 68 -478 155 -602 183 -10 2 -79 17 -153 34 -143 32
-160 35 -255 51 -33 5 -71 12 -85 14 -23 5 -140 20 -235 32 -22 2 -56 6 -75 9
-37 5 -108 11 -255 21 -87 6 -552 13 -557 9z"/>
</g>
</svg>
